PathFileType	4	(X/Y/Z)	C:\Users\°ÂÌØÂü\Desktop\20210112\bx_y_10_501-Unnamed.trc
DataRate	CameraRate	NumFrames	NumMarkers	Units	OrigDataRate	OrigDataStartFrame	OrigNumFrames
50.00	50.00	       6	0	mm	50.00	269	       537
Frame#	Time	
		

269	5.360	-709.53857	283.02917	1535.79004	-752.71448	249.63010	647.32672	-637.41748	218.75011	1075.90869	-713.30054	-76.63084	1541.14246	-712.94226	143.99768	577.69769	-619.98413	-7.20855	812.69012				-623.38092	217.40443	823.67853				-683.70990	279.41272	882.74231	-682.90887	17.21585	523.14618	-754.07587	246.06299	579.13788	-792.04456	254.40413	503.17087	-697.54907	206.92091	537.02374	-718.86188	76.43359	217.20053	-666.43774	-68.69368	161.46524	-714.07214	153.81461	218.13057	-773.82977	223.86542	204.36107	-882.50006	296.18253	144.69447	-675.71515	53.96899	160.46628	-604.52191	17.32974	168.89137	-676.27496	174.20663	158.87547	-596.55597	223.97644	174.21625	-667.08575	299.48129	159.36505	-629.54486	306.94131	161.45862	-562.00079	261.47861	165.37801	-528.07770	304.24625	146.45256	-725.97766	102.16741	1847.99695				-727.93457	271.35251	753.54639	-517.88721	-72.41499	143.08368	-562.48883	-39.96896	162.90553	-797.60583	173.52080	183.02065	-795.69769	55.57425	174.43336	-705.99017	80.32722	577.93976	-779.39227	-33.15048	489.08121	-770.70844	-5.18095	206.77431	-876.19427	-78.59859	141.76306	-722.21313	-27.82802	618.78583	-733.93665	-24.72030	569.22327	-624.72723	-80.23741	158.41534	-690.73187	-65.55423	875.28180	-842.57684	94.87918	1056.19324	-725.43451	-48.60193	722.52289	
270	5.380	-713.02173	283.18994	1536.03601	-750.26965	249.64677	646.97455	-634.83026	219.67990	1076.53284	-716.90918	-76.15467	1541.77734	-711.59357	143.70013	577.56287	-617.04688	-6.95356	812.62933				-620.93500	217.10298	823.34052				-681.19202	279.70609	882.65118	-681.10492	17.69015	522.38989	-752.08136	245.72552	578.97681	-790.25085	254.37405	503.00894	-696.42456	206.87106	536.93994	-718.68536	76.60728	217.07600	-666.24042	-68.47187	161.41782	-713.98969	153.65921	218.10349	-773.56799	223.88257	204.24525	-882.37628	296.02225	144.68523	-675.43390	54.18872	160.29521	-604.61566	17.41140	168.65518	-676.27496	174.20663	158.87547	-596.63989	223.90437	174.18373	-667.19940	299.40503	159.54469	-629.58203	307.10062	161.31543	-561.93970	261.49207	165.27168	-527.99078	304.21622	146.57008	-729.84247	102.21325	1848.39880				-725.87323	272.18625	753.61560	-517.69446	-72.59437	142.99931	-562.21301	-39.98374	163.05957	-797.54102	173.49890	183.08182	-795.59247	55.98955	174.76210	-704.33881	80.55472	578.48853	-777.68213	-32.55946	488.64954	-770.36676	-5.07696	206.76086	-876.02838	-78.54763	141.55200	-719.70886	-27.56486	618.47681	-732.11536	-24.66217	569.22998	-624.52356	-79.91798	158.10577	-687.85162	-65.88426	875.62744	-840.07391	95.28692	1055.93420	-723.04309	-48.20917	722.07538	
271	5.400	-716.33307	283.13492	1535.81384	-748.52448	249.77924	647.30585	-632.27142	219.26953	1076.62866	-720.09265	-76.26832	1542.27124	-710.44751	143.94022	577.98962	-614.87128	-6.75555	812.50513				-618.53229	217.28917	823.18311				-678.56641	280.40115	883.10242	-679.35681	17.88937	522.80688	-750.62958	246.33069	579.78772	-789.43701	254.58461	503.36517	-694.41388	206.55345	536.87762	-718.15796	77.12856	217.59520	-666.36365	-68.53378	161.61183	-713.87292	153.54675	218.22591	-773.54047	223.86768	204.33171	-882.52582	296.01248	144.52502	-675.58789	53.85481	160.02045	-604.53876	17.70408	168.46863	-676.27496	174.20663	158.87547	-596.37219	223.79047	174.20773	-666.94470	299.43866	159.63779	-629.60358	306.75421	161.33907	-561.92816	261.48428	165.30539	-528.16980	304.08307	146.45369	-733.15515	102.25670	1848.73816				-723.88110	271.32690	753.51404	-517.94867	-72.55080	143.30087	-562.33972	-39.94305	163.09825	-797.44836	173.43390	183.07347	-795.59247	55.98955	174.76210	-702.87799	81.00295	578.51373	-776.47559	-32.68138	489.12921	-770.01447	-5.08449	206.78108	-876.05621	-78.49118	141.57738	-718.00580	-28.06031	619.05029	-730.13702	-23.96601	569.13947	-624.57135	-79.99234	158.25507	-685.17194	-65.75205	875.51538	-837.55688	94.97664	1055.48291	-720.87555	-47.71297	721.78394	
272	5.420	-719.23700	283.44974	1536.02576	-746.99231	249.61353	647.31372	-630.35138	219.79961	1076.76001	-722.34814	-76.05093	1542.50940	-709.38623	144.30914	578.18958	-612.78278	-6.12420	812.37115				-616.83484	217.07141	823.36877				-676.48218	280.30173	882.96130	-678.27588	17.93304	522.79913	-749.28485	245.98582	578.93909	-788.17145	254.57259	503.49600	-693.92578	206.48857	536.47101	-718.15179	77.42011	217.33517	-666.20819	-68.44904	161.66357	-713.91162	153.66679	218.10890	-773.38739	223.76775	204.29724	-882.39606	296.09891	144.73637	-675.62732	54.26740	159.88667	-604.45868	17.72668	168.49431	-676.27496	174.20663	158.87547	-596.39166	224.04570	174.19861	-667.02997	299.50208	159.52634	-629.65540	307.07370	161.49736	-561.97046	261.41977	165.26910	-528.07770	304.24625	146.45256	-736.42255	102.21981	1848.86072				-722.18805	271.59610	753.79816	-517.86548	-72.48969	142.82286	-561.86749	-39.99739	163.21121	-797.38556	173.41599	183.13765	-794.63611	55.38540	174.31439	-700.95282	81.29651	578.90002	-774.96869	-32.31588	489.30466	-769.40771	-4.82476	206.66711	-876.03320	-78.59757	141.50241	-715.88312	-27.47124	618.86475	-728.49396	-24.37789	569.44873	-624.67041	-79.91494	158.12170	-682.76349	-65.97677	875.66467	-835.09442	95.28972	1055.31787	-719.16821	-47.47078	722.16589	
273	5.440	-721.72949	283.21112	1535.65881	-745.57031	250.00842	647.50024	-628.48962	219.42545	1076.09839	-724.73834	-75.88723	1542.79224	-707.84009	144.24023	577.42163	-610.63519	-6.02293	812.49884				-615.29968	217.55931	822.82422				-674.37073	281.20844	883.30688	-676.83551	18.60341	522.06793	-748.19678	246.22057	579.46991	-787.31915	254.74736	503.88672	-692.61115	206.52571	536.33484	-718.15179	77.42011	217.33517	-666.31189	-68.40671	161.67496	-713.65106	153.49303	218.36716	-773.41125	223.74298	204.24994	-882.42468	295.98312	144.60002	-675.55414	54.38170	159.47667	-604.47119	17.92414	168.12221	-676.27496	174.20663	158.87547	-596.27148	223.82950	174.25816	-667.10834	299.60376	159.53885	-629.55933	307.12531	161.23541	-561.90778	261.62640	165.18729	-528.08600	304.15735	146.47820	-739.02869	103.00455	1849.18311				-720.18134	271.35065	753.86395	-517.93317	-72.66454	143.21991	-562.06116	-39.94550	163.10834	-797.38556	173.41599	183.13765	-794.53296	55.55542	174.17918	-700.08649	81.32981	578.36145	-773.42712	-32.49144	489.35199	-769.36072	-4.68206	206.71317	-876.13446	-78.66106	141.72231	-713.48865	-27.70650	618.76538	-726.83881	-23.67567	568.89465	-624.59863	-80.00175	158.42827	-680.51514	-65.44601	874.90302	-833.30865	95.33442	1055.17993	-716.72137	-48.84802	722.74640	
274	5.460	-723.63269	282.90518	1535.57593	-744.23920	249.58821	647.46362	-625.81122	220.14729	1076.93286	-726.53516	-76.04799	1543.00513	-706.64862	143.94528	577.35938	-608.45819	-5.39939	812.30426				-613.48083	217.51062	822.93414				-672.75891	280.77377	882.88220	-676.46008	18.76208	521.79596	-746.92279	245.99765	579.17981	-786.12714	255.02684	504.12250	-692.12561	206.61983	536.26709	-718.18506	77.52608	217.18468	-666.16016	-68.45490	161.82021	-713.68976	153.61307	218.25017	-773.01538	223.82312	204.40508	-882.50165	296.16248	144.68221	-675.67957	54.22847	159.26982	-604.47913	17.92652	167.95238	-676.27496	174.20663	158.87547	-596.32715	223.96603	174.26720	-667.05750	299.60004	159.45673	-629.62445	307.09836	161.40199	-561.90778	261.62640	165.18729	-527.99475	304.39630	146.60587	-741.26251	103.46390	1849.32288				-718.87463	271.14847	752.98383	-517.77026	-72.43906	143.00716	-561.74066	-40.14059	163.09564	-797.40631	173.49535	183.12527	-794.51215	55.41697	174.11707	-698.90729	81.74786	578.68042	-772.54108	-32.18327	489.20166	-769.28735	-4.75524	206.70877	-875.97290	-78.71005	141.52997	-712.15619	-27.72546	618.75336	-725.33063	-23.90340	569.20624	-624.73206	-79.80692	158.54555	-678.24548	-65.50234	875.26129	-831.44830	95.10558	1055.19348	-715.43408	-49.07380	722.53320	
